:SAMPLES-PER-SECOND 30
:FULLY-SPECIFIED
:DEGREES
1350
root  14.4784 38.4294 -17.7128 -29.5315 -77.0775 23.1358
RightUpLeg  -18.1359 -9.62496 -9.138
RightLeg  -1.71869 -9.1052 4.27008
RightFoot  0.0753581 -0.175667 1.85173
RightToes  0.00048216 0.542163 -0.142577
Spine  12.9238 -1.49186 -6.83634
Spine1  9.95498 -4.10901 5.61692
HEad  -4.84605 0.867498 0.00825287
LeftShoulder1  10.0264 -15.6866 -45.549
LeftArm  13.925 4.2924 -34.5997
LeftForeArm  86.4762 -79.942 -84.8122
LeftHand  -0.25398 0.0180481 5.50724
RightShoulder  5.83683 10.2048 36.5807
RightArm  -1.56339 -21.4382 34.7218
RightForeArm  99.1912 71.5791 140.885
RightHand  -7.63095 15.9984 -40.1814
LeftUpLeg  20.8217 6.14096 -4.09705
LeftLeg  11.2882 14.4476 -2.49099
LeftFoot  -20.1326 -0.0538337 -2.27847
LeftToes  1.06245e-005 4.65856e-005 -8.18504e-006
1351
root  12.6477 38.1861 -17.6162 -25.6204 -76.7911 19.2433
RightUpLeg  -19.8994 -10.4838 -8.08528
RightLeg  2.38083 -10.5536 3.72021
RightFoot  4.87528 0.198127 -1.10746
RightToes  0.00048216 0.542163 -0.142577
Spine  12.7625 -1.79893 -5.56878
Spine1  10.2254 -4.56417 6.35077
HEad  -4.30718 0.732391 -0.169288
LeftShoulder1  10.0585 -15.576 -45.9746
LeftArm  14.6956 3.70472 -34.4269
LeftForeArm  85.4376 -79.9219 -83.838
LeftHand  -0.25398 0.0180481 5.50724
RightShoulder  5.69973 9.92995 36.4359
RightArm  -1.95218 -21.9077 35.0215
RightForeArm  99.9306 71.3474 141.506
RightHand  -7.6491 16.0947 -40.1031
LeftUpLeg  23.1156 8.56545 -1.27321
LeftLeg  12.9754 10.8079 -1.59203
LeftFoot  -20.2968 -0.254556 -4.75793
LeftToes  1.06245e-005 4.65856e-005 -8.18504e-006
1352
root  10.72 37.9498 -17.4519 -19.9741 -77.9353 13.7062
RightUpLeg  -23.042 -14.8177 -4.30769
RightLeg  10.9054 -6.11079 1.83721
RightFoot  10.3335 0.654424 -3.07958
RightToes  0.00048216 0.542163 -0.142577
Spine  12.2885 -2.06626 -2.06837
Spine1  10.6158 -4.23393 5.47566
HEad  -3.86729 0.898736 -0.833517
LeftShoulder1  10.1774 -15.48 -46.7765
LeftArm  14.8588 3.94627 -33.8871
LeftForeArm  84.4135 -79.9016 -82.7822
LeftHand  -0.25398 0.0180481 5.50724
RightShoulder  5.6377 9.83179 36.2874
RightArm  -1.53419 -22.2033 34.7781
RightForeArm  100.126 71.4899 141.201
RightHand  -7.49903 15.8162 -39.8574
LeftUpLeg  24.5309 12.7422 2.8592
LeftLeg  16.516 5.60108 0.205184
LeftFoot  -19.6705 -0.602503 -10.0502
LeftToes  1.06245e-005 4.65856e-005 -8.18504e-006
1353
root  8.76398 37.7855 -17.2621 -13.3502 -79.8441 7.54672
RightUpLeg  -26.2341 -20.089 0.697225
RightLeg  18.9262 1.73936 0.244457
RightFoot  11.0887 0.884937 -4.09906
RightToes  0.00048216 0.542163 -0.142577
Spine  11.5265 -2.12336 1.95342
Spine1  10.9435 -3.37739 3.94418
HEad  -3.2075 1.49316 -1.84211
LeftShoulder1  10.3637 -15.4659 -47.687
LeftArm  14.5382 5.17982 -33.296
LeftForeArm  83.2781 -79.8758 -81.5822
LeftHand  -0.25398 0.0180481 5.50724
RightShoulder  5.69922 9.99721 36.2265
RightArm  -0.45088 -22.3123 33.9532
RightForeArm  98.7647 72.055 139.673
RightHand  -7.36468 15.512 -39.7274
LeftUpLeg  23.7096 15.5226 5.80754
LeftLeg  22.7862 4.74612 2.82982
LeftFoot  -15.611 -0.4341 -14.355
LeftToes  1.06245e-005 4.65856e-005 -8.18504e-006
1354
root  6.92615 37.8159 -17.1527 -4.61548 -81.2034 -0.427185
RightUpLeg  -27.1282 -18.1291 1.92402
RightLeg  24.6119 1.03034 0.266134
RightFoot  7.29761 0.994041 -5.77203
RightToes  0.00048216 0.542163 -0.142577
Spine  11.1201 -1.95717 4.82245
Spine1  10.9825 -2.77558 3.7073
HEad  -2.11466 2.19447 -2.66598
LeftShoulder1  10.5304 -15.5275 -48.306
LeftArm  14.1237 7.00336 -32.9323
LeftForeArm  82.2595 -79.8478 -80.5699
LeftHand  -0.25398 0.0180481 5.50724
RightShoulder  5.75685 10.1895 36.0581
RightArm  1.05224 -22.0784 33.0868
RightForeArm  95.3365 72.8763 137.054
RightHand  -7.45013 15.6283 -39.944
LeftUpLeg  19.0298 15.0435 6.57007
LeftLeg  32.8192 10.0123 7.31547
LeftFoot  -5.59262 0.526095 -11.6645
LeftToes  1.06245e-005 4.65856e-005 -8.18504e-006
1355
root  5.29913 37.8778 -17.1514 6.2843 -80.6832 -10.7832
RightUpLeg  -26.8344 -17.8048 3.45884
RightLeg  28.3853 -0.0523572 -0.269853
RightFoot  2.73502 0.878799 -6.91272
RightToes  0.00048216 0.542163 -0.142577
Spine  11.5751 -2.1448 6.7072
Spine1  10.742 -2.83847 4.96112
HEad  -0.974383 2.43149 -2.79877
LeftShoulder1  10.6229 -15.6085 -48.5255
LeftArm  14.113 8.42981 -32.6564
LeftForeArm  80.4404 -79.7857 -79.0278
LeftHand  -0.25398 0.0180481 5.50724
RightShoulder  5.71415 10.1755 35.795
RightArm  2.49676 -21.5 32.5513
RightForeArm  91.4528 73.5865 134.396
RightHand  -7.57472 15.8518 -40.1632
LeftUpLeg  11.4251 13.9731 7.41534
LeftLeg  45.084 11.8751 12.7697
LeftFoot  6.09839 0.464219 -3.16912
LeftToes  1.06245e-005 4.65856e-005 -8.18504e-006
1356
root  3.82429 37.974 -17.1636 13.7808 -78.5761 -18.4166
RightUpLeg  -24.9211 -18.8007 4.62854
RightLeg  30.2909 -0.90622 -0.818257
RightFoot  -0.451044 0.592029 -6.20461
RightToes  0.00048216 0.542163 -0.142577
Spine  12.8336 -2.77183 8.62205
Spine1  10.4533 -3.22133 6.10941
HEad  -0.31026 1.88382 -2.1888
LeftShoulder1  10.6702 -15.6825 -48.5537
LeftArm  14.6644 8.69253 -32.1681
LeftForeArm  76.4268 -79.62 -75.6445
LeftHand  -0.25398 0.0180481 5.50724
RightShoulder  5.65561 10.0609 35.7187
RightArm  3.311 -20.8355 32.2866
RightForeArm  89.1042 74.0167 132.628
RightHand  -7.56261 15.8398 -40.1258
LeftUpLeg  3.52933 11.3556 8.03625
LeftLeg  55.4178 9.24711 14.455
LeftFoot  11.568 -0.550128 2.54195
LeftToes  1.06245e-005 4.65856e-005 -8.18504e-006
1357
root  2.34417 38.2839 -17.1154 14.876 -76.387 -20.1315
RightUpLeg  -21.2856 -20.8206 4.63575
RightLeg  30.1856 -0.789177 -0.750598
RightFoot  -2.76904 0.336389 -4.7447
RightToes  0.00048216 0.542163 -0.142577
Spine  14.1454 -3.32851 10.1671
Spine1  10.2921 -3.38784 6.14381
HEad  -0.0240261 0.698936 -1.25196
LeftShoulder1  10.7185 -15.7581 -48.5819
LeftArm  15.4246 7.99731 -31.5286
LeftForeArm  70.828 -79.3196 -70.8054
LeftHand  -0.25398 0.0180481 5.50724
RightShoulder  5.67485 10.0666 35.8398
RightArm  3.37405 -20.371 32.2295
RightForeArm  87.8814 74.3211 131.362
RightHand  -7.70447 16.1106 -40.3375
LeftUpLeg  -3.16677 8.64725 7.74601
LeftLeg  61.7147 5.67276 11.8838
LeftFoot  10.2523 -0.69425 3.26758
LeftToes  1.06245e-005 4.65856e-005 -8.18504e-006
1358
root  0.836702 38.712 -17.0276 13.2113 -75.0201 -18.9333
RightUpLeg  -17.109 -23.1714 3.79883
RightLeg  28.9436 -0.0471812 -0.314144
RightFoot  -4.91071 0.202279 -4.21821
RightToes  0.00048216 0.542163 -0.142577
Spine  14.9852 -3.38047 10.9613
Spine1  10.2863 -3.13906 5.77582
HEad  0.395219 -0.746656 -0.440661
LeftShoulder1  10.7504 -15.8285 -48.5488
LeftArm  15.9302 7.22691 -31.077
LeftForeArm  66.2298 -79.0014 -66.7523
LeftHand  -0.25398 0.0180481 5.50724
RightShoulder  5.72342 10.1626 35.9004
RightArm  3.19052 -20.1505 32.4084
RightForeArm  86.0463 74.6692 129.759
RightHand  -8.16833 16.9306 -41.1147
LeftUpLeg  -8.79057 6.8751 6.66257
LeftLeg  63.6407 3.45259 8.25722
LeftFoot  6.8766 -0.196036 0.961616
LeftToes  1.06245e-005 4.65856e-005 -8.18504e-006
1359
root  -0.691896 39.1357 -16.9401 10.8492 -74.5038 -16.6808
RightUpLeg  -12.8368 -24.5605 2.42164
RightLeg  26.9059 0.403768 0.176694
RightFoot  -6.58767 0.127321 -4.12242
RightToes  0.00048216 0.542163 -0.142577
Spine  15.3962 -2.88231 10.951
Spine1  10.139 -2.5139 5.49289
HEad  1.05208 -2.13174 0.123838
LeftShoulder1  10.7204 -15.8709 -48.3047
LeftArm  16.0262 6.95814 -30.9189
LeftForeArm  64.3151 -78.8453 -65.0343
LeftHand  -0.25398 0.0180481 5.50724
RightShoulder  5.73063 10.186 35.8818
RightArm  3.30709 -19.9906 32.6675
RightForeArm  83.3563 75.0585 127.731
RightHand  -8.36625 17.1994 -41.5654
LeftUpLeg  -13.5133 6.25654 5.12051
LeftLeg  61.6135 3.07098 6.73072
LeftFoot  4.85155 0.00709154 -0.228023
LeftToes  1.06245e-005 4.65856e-005 -8.18504e-006
